{
  "accessors": [
    {
      "name": "standard_shader_ball_scene:material_surface standard_shader_ball_scene:shader_ball standard_shader_ball_scene:standard_shader_ball_scene_1_0_positions",
      "componentType": 5126,
      "count": 52542,
      "min": [
        -4.445551872253418,
        0.38266000151634216,
        -4.445551872253418
      ],
      "max": [
        4.462161064147949,
        8.204633712768555,
        4.462161064147949
      ],
      "type": "VEC3",
      "bufferView": 0,
      "byteOffset": 0
    },
    {
      "name": "standard_shader_ball_scene:material_surface standard_shader_ball_scene:shader_ball standard_shader_ball_scene:standard_shader_ball_scene_1_0_normals",
      "componentType": 5126,
      "count": 52542,
      "min": [
        -1,
        -1,
        -1
      ],
      "max": [
        1,
        1,
        1
      ],
      "type": "VEC3",
      "bufferView": 1,
      "byteOffset": 0
    },
    {
      "name": "standard_shader_ball_scene:material_surface standard_shader_ball_scene:shader_ball standard_shader_ball_scene:standard_shader_ball_scene_1_0_texcoords",
      "componentType": 5126,
      "count": 52542,
      "min": [
        0,
        0.0011249999515712261
      ],
      "max": [
        0.9996399879455566,
        1
      ],
      "type": "VEC2",
      "bufferView": 2,
      "byteOffset": 0
    },
    {
      "name": "standard_shader_ball_scene:material_surface standard_shader_ball_scene:shader_ball standard_shader_ball_scene:standard_shader_ball_scene_1_0_indices",
      "componentType": 5123,
      "count": 140112,
      "min": [
        0
      ],
      "max": [
        52541
      ],
      "type": "SCALAR",
      "bufferView": 3,
      "byteOffset": 0
    }
  ],
  "asset": {
    "generator": "obj2gltf",
    "version": "2.0"
  },
  "buffers": [
    {
      "name": "shaderball",
      "byteLength": 1961568,
      "uri": "data:application/octet-stream;base64,"
    }
  ],
  "bufferViews": [
    {
      "name": "bufferView_0",
      "buffer": 0,
      "byteLength": 630504,
      "byteOffset": 0,
      "byteStride": 12,
      "target": 34962
    },
    {
      "name": "bufferView_1",
      "buffer": 0,
      "byteLength": 630504,
      "byteOffset": 630504,
      "byteStride": 12,
      "target": 34962
    },
    {
      "name": "bufferView_2",
      "buffer": 0,
      "byteLength": 420336,
      "byteOffset": 1261008,
      "byteStride": 8,
      "target": 34962
    },
    {
      "name": "bufferView_3",
      "buffer": 0,
      "byteLength": 280224,
      "byteOffset": 1681344,
      "target": 34963
    }
  ],
  "materials": [
    {
      "name": "initialShadingGroup",
      "pbrMetallicRoughness": {
        "baseColorFactor": [
          0,
          0,
          0,
          1
        ],
        "metallicFactor": 0,
        "roughnessFactor": 1
      },
      "emissiveFactor": [
        0,
        0,
        0
      ],
      "alphaMode": "OPAQUE",
      "doubleSided": false
    }
  ],
  "meshes": [
    {
      "name": "standard_shader_ball_scene:material_surface standard_shader_ball_scene:shader_ball standard_shader_ball_scene:standard_shader_ball_scene_1",
      "primitives": [
        {
          "attributes": {
            "POSITION": 0,
            "NORMAL": 1,
            "TEXCOORD_0": 2
          },
          "indices": 3,
          "material": 0,
          "mode": 4
        }
      ]
    }
  ],
  "nodes": [
    {
      "name": "standard_shader_ball_scene:material_surface standard_shader_ball_scene:shader_ball standard_shader_ball_scene:standard_shader_ball_scene",
      "mesh": 0
    }
  ],
  "scene": 0,
  "scenes": [
    {
      "nodes": [
        0
      ]
    }
  ]
}
