{
  "accessors": [
    {
      "name": "shell:polySurface1 shell:standard_shader_ball_1_0_positions",
      "componentType": 5126,
      "count": 5282,
      "min": [
        -3.756248950958252,
        1.1589720249176025,
        -3.7563350200653076
      ],
      "max": [
        3.7571330070495605,
        8.204633712768555,
        3.757046937942505
      ],
      "type": "VEC3",
      "bufferView": 0,
      "byteOffset": 0
    },
    {
      "name": "shell:polySurface1 shell:standard_shader_ball_1_0_normals",
      "componentType": 5126,
      "count": 5282,
      "min": [
        -0.9999669790267944,
        -1,
        -0.9999669790267944
      ],
      "max": [
        0.9999732971191406,
        1,
        0.9999732375144958
      ],
      "type": "VEC3",
      "bufferView": 1,
      "byteOffset": 0
    },
    {
      "name": "shell:polySurface1 shell:standard_shader_ball_1_0_texcoords",
      "componentType": 5126,
      "count": 5282,
      "min": [
        -0.01169699989259243,
        0.011118000373244286
      ],
      "max": [
        0.9865840077400208,
        1.009652018547058
      ],
      "type": "VEC2",
      "bufferView": 2,
      "byteOffset": 0
    },
    {
      "name": "shell:polySurface1 shell:standard_shader_ball_1_0_indices",
      "componentType": 5123,
      "count": 31680,
      "min": [
        0
      ],
      "max": [
        5281
      ],
      "type": "SCALAR",
      "bufferView": 3,
      "byteOffset": 0
    }
  ],
  "asset": {
    "generator": "obj2gltf",
    "version": "2.0"
  },
  "buffers": [
    {
      "name": "shell",
      "byteLength": 232384,
      "uri": "data:application/octet-stream;base64,"
    }
  ],
  "bufferViews": [
    {
      "name": "bufferView_0",
      "buffer": 0,
      "byteLength": 63384,
      "byteOffset": 0,
      "byteStride": 12,
      "target": 34962
    },
    {
      "name": "bufferView_1",
      "buffer": 0,
      "byteLength": 63384,
      "byteOffset": 63384,
      "byteStride": 12,
      "target": 34962
    },
    {
      "name": "bufferView_2",
      "buffer": 0,
      "byteLength": 42256,
      "byteOffset": 126768,
      "byteStride": 8,
      "target": 34962
    },
    {
      "name": "bufferView_3",
      "buffer": 0,
      "byteLength": 63360,
      "byteOffset": 169024,
      "target": 34963
    }
  ],
  "materials": [
    {
      "name": "initialShadingGroup",
      "pbrMetallicRoughness": {
        "baseColorFactor": [
          0,
          0,
          0,
          1
        ],
        "metallicFactor": 0,
        "roughnessFactor": 1
      },
      "emissiveFactor": [
        0,
        0,
        0
      ],
      "alphaMode": "OPAQUE",
      "doubleSided": false
    }
  ],
  "meshes": [
    {
      "name": "shell:polySurface1 shell:standard_shader_ball_1",
      "primitives": [
        {
          "attributes": {
            "POSITION": 0,
            "NORMAL": 1,
            "TEXCOORD_0": 2
          },
          "indices": 3,
          "material": 0,
          "mode": 4
        }
      ]
    }
  ],
  "nodes": [
    {
      "name": "shell:polySurface1 shell:standard_shader_ball",
      "mesh": 0
    }
  ],
  "scene": 0,
  "scenes": [
    {
      "nodes": [
        0
      ]
    }
  ]
}
