{
  "accessors": [
    {
      "name": "core:shader_ballstandard_shader_b1_1_0_positions",
      "componentType": 5126,
      "count": 39000,
      "min": [
        -3.1268930435180664,
        0,
        -3.1268930435180664
      ],
      "max": [
        3.1268930435180664,
        7.142286777496338,
        3.1268930435180664
      ],
      "type": "VEC3",
      "bufferView": 0,
      "byteOffset": 0
    },
    {
      "name": "core:shader_ballstandard_shader_b1_1_0_normals",
      "componentType": 5126,
      "count": 39000,
      "min": [
        -1,
        -1,
        -1
      ],
      "max": [
        1,
        1,
        1
      ],
      "type": "VEC3",
      "bufferView": 1,
      "byteOffset": 0
    },
    {
      "name": "core:shader_ballstandard_shader_b1_1_0_texcoords",
      "componentType": 5126,
      "count": 39000,
      "min": [
        0,
        0.4750710129737854
      ],
      "max": [
        0.9999790191650391,
        1
      ],
      "type": "VEC2",
      "bufferView": 2,
      "byteOffset": 0
    },
    {
      "name": "core:shader_ballstandard_shader_b1_1_0_indices",
      "componentType": 5123,
      "count": 149760,
      "min": [
        0
      ],
      "max": [
        38999
      ],
      "type": "SCALAR",
      "bufferView": 3,
      "byteOffset": 0
    }
  ],
  "asset": {
    "generator": "obj2gltf",
    "version": "2.0"
  },
  "buffers": [
    {
      "name": "core_base",
      "byteLength": 1547520,
      "uri": "data:application/octet-stream;base64,"
    }
  ],
  "bufferViews": [
    {
      "name": "bufferView_0",
      "buffer": 0,
      "byteLength": 468000,
      "byteOffset": 0,
      "byteStride": 12,
      "target": 34962
    },
    {
      "name": "bufferView_1",
      "buffer": 0,
      "byteLength": 468000,
      "byteOffset": 468000,
      "byteStride": 12,
      "target": 34962
    },
    {
      "name": "bufferView_2",
      "buffer": 0,
      "byteLength": 312000,
      "byteOffset": 936000,
      "byteStride": 8,
      "target": 34962
    },
    {
      "name": "bufferView_3",
      "buffer": 0,
      "byteLength": 299520,
      "byteOffset": 1248000,
      "target": 34963
    }
  ],
  "materials": [
    {
      "name": "initialShadingGroup",
      "pbrMetallicRoughness": {
        "baseColorFactor": [
          0,
          0,
          0,
          1
        ],
        "metallicFactor": 0,
        "roughnessFactor": 1
      },
      "emissiveFactor": [
        0,
        0,
        0
      ],
      "alphaMode": "OPAQUE",
      "doubleSided": false
    }
  ],
  "meshes": [
    {
      "name": "core:shader_ballstandard_shader_b1_1",
      "primitives": [
        {
          "attributes": {
            "POSITION": 0,
            "NORMAL": 1,
            "TEXCOORD_0": 2
          },
          "indices": 3,
          "material": 0,
          "mode": 4
        }
      ]
    }
  ],
  "nodes": [
    {
      "name": "core:shader_ballstandard_shader_b1",
      "mesh": 0
    }
  ],
  "scene": 0,
  "scenes": [
    {
      "nodes": [
        0
      ]
    }
  ]
}
