{
  "accessors": [
    {
      "name": "standard_shader_ball_scene:base standard_shader_ball_scene:neutral_objects standard_shader_ball_scene:shader_ball standard_shader_ball_scene:standard_shader_ball_scene_1_0_positions",
      "componentType": 5126,
      "count": 3168,
      "min": [
        -3.1424999237060547,
        0,
        -3.1424999237060547
      ],
      "max": [
        3.1424999237060547,
        1.0800000429153442,
        3.1424999237060547
      ],
      "type": "VEC3",
      "bufferView": 0,
      "byteOffset": 0
    },
    {
      "name": "standard_shader_ball_scene:base standard_shader_ball_scene:neutral_objects standard_shader_ball_scene:shader_ball standard_shader_ball_scene:standard_shader_ball_scene_1_0_normals",
      "componentType": 5126,
      "count": 3168,
      "min": [
        -1,
        -1,
        -1
      ],
      "max": [
        1,
        1,
        1
      ],
      "type": "VEC3",
      "bufferView": 1,
      "byteOffset": 0
    },
    {
      "name": "standard_shader_ball_scene:base standard_shader_ball_scene:neutral_objects standard_shader_ball_scene:shader_ball standard_shader_ball_scene:standard_shader_ball_scene_1_0_texcoords",
      "componentType": 5126,
      "count": 3168,
      "min": [
        0,
        0.4750710129737854
      ],
      "max": [
        0.9999790191650391,
        1
      ],
      "type": "VEC2",
      "bufferView": 2,
      "byteOffset": 0
    },
    {
      "name": "standard_shader_ball_scene:base standard_shader_ball_scene:neutral_objects standard_shader_ball_scene:shader_ball standard_shader_ball_scene:standard_shader_ball_scene_1_0_indices",
      "componentType": 5123,
      "count": 4752,
      "min": [
        0
      ],
      "max": [
        3167
      ],
      "type": "SCALAR",
      "bufferView": 3,
      "byteOffset": 0
    }
  ],
  "asset": {
    "generator": "obj2gltf",
    "version": "2.0"
  },
  "buffers": [
    {
      "name": "base",
      "byteLength": 110880,
      "uri": "data:application/octet-stream;base64,"
    }
  ],
  "bufferViews": [
    {
      "name": "bufferView_0",
      "buffer": 0,
      "byteLength": 38016,
      "byteOffset": 0,
      "byteStride": 12,
      "target": 34962
    },
    {
      "name": "bufferView_1",
      "buffer": 0,
      "byteLength": 38016,
      "byteOffset": 38016,
      "byteStride": 12,
      "target": 34962
    },
    {
      "name": "bufferView_2",
      "buffer": 0,
      "byteLength": 25344,
      "byteOffset": 76032,
      "byteStride": 8,
      "target": 34962
    },
    {
      "name": "bufferView_3",
      "buffer": 0,
      "byteLength": 9504,
      "byteOffset": 101376,
      "target": 34963
    }
  ],
  "materials": [
    {
      "name": "standard_shader_ball_scene:neutral",
      "pbrMetallicRoughness": {
        "baseColorFactor": [
          0.5,
          0.5,
          0.5,
          1
        ],
        "metallicFactor": 0,
        "roughnessFactor": 1
      },
      "emissiveFactor": [
        0,
        0,
        0
      ],
      "alphaMode": "OPAQUE",
      "doubleSided": false
    }
  ],
  "meshes": [
    {
      "name": "standard_shader_ball_scene:base standard_shader_ball_scene:neutral_objects standard_shader_ball_scene:shader_ball standard_shader_ball_scene:standard_shader_ball_scene_1",
      "primitives": [
        {
          "attributes": {
            "POSITION": 0,
            "NORMAL": 1,
            "TEXCOORD_0": 2
          },
          "indices": 3,
          "material": 0,
          "mode": 4
        }
      ]
    }
  ],
  "nodes": [
    {
      "name": "standard_shader_ball_scene:base standard_shader_ball_scene:neutral_objects standard_shader_ball_scene:shader_ball standard_shader_ball_scene:standard_shader_ball_scene",
      "mesh": 0
    }
  ],
  "scene": 0,
  "scenes": [
    {
      "nodes": [
        0
      ]
    }
  ]
}
