{
  "accessors": [
    {
      "name": "standard_shader_ball_scene:core standard_shader_ball_scene:neutral_objects standard_shader_ball_scene:shader_ball standard_shader_ball_scene:standard_shader_ball_scene_1_0_positions",
      "componentType": 5126,
      "count": 3072,
      "min": [
        -2.699841022491455,
        1.7475700378417969,
        -2.6999270915985107
      ],
      "max": [
        2.6997148990631104,
        7.147490978240967,
        2.699629068374634
      ],
      "type": "VEC3",
      "bufferView": 0,
      "byteOffset": 0
    },
    {
      "name": "standard_shader_ball_scene:core standard_shader_ball_scene:neutral_objects standard_shader_ball_scene:shader_ball standard_shader_ball_scene:standard_shader_ball_scene_1_0_normals",
      "componentType": 5126,
      "count": 3072,
      "min": [
        -0.9999390840530396,
        -0.9999932646751404,
        -0.9999390840530396
      ],
      "max": [
        0.9991694688796997,
        0.9994165897369385,
        0.9991695284843445
      ],
      "type": "VEC3",
      "bufferView": 1,
      "byteOffset": 0
    },
    {
      "name": "standard_shader_ball_scene:core standard_shader_ball_scene:neutral_objects standard_shader_ball_scene:shader_ball standard_shader_ball_scene:standard_shader_ball_scene_1_0_texcoords",
      "componentType": 5126,
      "count": 3072,
      "min": [
        0,
        0.6132410168647766
      ],
      "max": [
        0.5296810269355774,
        1
      ],
      "type": "VEC2",
      "bufferView": 2,
      "byteOffset": 0
    },
    {
      "name": "standard_shader_ball_scene:core standard_shader_ball_scene:neutral_objects standard_shader_ball_scene:shader_ball standard_shader_ball_scene:standard_shader_ball_scene_1_0_indices",
      "componentType": 5123,
      "count": 4608,
      "min": [
        0
      ],
      "max": [
        3071
      ],
      "type": "SCALAR",
      "bufferView": 3,
      "byteOffset": 0
    }
  ],
  "asset": {
    "generator": "obj2gltf",
    "version": "2.0"
  },
  "buffers": [
    {
      "name": "core",
      "byteLength": 107520,
      "uri": "data:application/octet-stream;base64,"
    }
  ],
  "bufferViews": [
    {
      "name": "bufferView_0",
      "buffer": 0,
      "byteLength": 36864,
      "byteOffset": 0,
      "byteStride": 12,
      "target": 34962
    },
    {
      "name": "bufferView_1",
      "buffer": 0,
      "byteLength": 36864,
      "byteOffset": 36864,
      "byteStride": 12,
      "target": 34962
    },
    {
      "name": "bufferView_2",
      "buffer": 0,
      "byteLength": 24576,
      "byteOffset": 73728,
      "byteStride": 8,
      "target": 34962
    },
    {
      "name": "bufferView_3",
      "buffer": 0,
      "byteLength": 9216,
      "byteOffset": 98304,
      "target": 34963
    }
  ],
  "materials": [
    {
      "name": "standard_shader_ball_scene:neutral",
      "pbrMetallicRoughness": {
        "baseColorFactor": [
          0.5,
          0.5,
          0.5,
          1
        ],
        "metallicFactor": 0,
        "roughnessFactor": 1
      },
      "emissiveFactor": [
        0,
        0,
        0
      ],
      "alphaMode": "OPAQUE",
      "doubleSided": false
    }
  ],
  "meshes": [
    {
      "name": "standard_shader_ball_scene:core standard_shader_ball_scene:neutral_objects standard_shader_ball_scene:shader_ball standard_shader_ball_scene:standard_shader_ball_scene_1",
      "primitives": [
        {
          "attributes": {
            "POSITION": 0,
            "NORMAL": 1,
            "TEXCOORD_0": 2
          },
          "indices": 3,
          "material": 0,
          "mode": 4
        }
      ]
    }
  ],
  "nodes": [
    {
      "name": "standard_shader_ball_scene:core standard_shader_ball_scene:neutral_objects standard_shader_ball_scene:shader_ball standard_shader_ball_scene:standard_shader_ball_scene",
      "mesh": 0
    }
  ],
  "scene": 0,
  "scenes": [
    {
      "nodes": [
        0
      ]
    }
  ]
}
