{
  "accessors": [
    {
      "name": "core1:core1:shader_ballstandard_shader_b_1_0_positions",
      "componentType": 5126,
      "count": 14626,
      "min": [
        -6.558781147003174,
        0,
        -6.558781147003174
      ],
      "max": [
        6.558781147003174,
        7.142887115478516,
        6.558781147003174
      ],
      "type": "VEC3",
      "bufferView": 0,
      "byteOffset": 0
    },
    {
      "name": "core1:core1:shader_ballstandard_shader_b_1_0_normals",
      "componentType": 5126,
      "count": 14626,
      "min": [
        -1,
        -1,
        -1
      ],
      "max": [
        1,
        1,
        1
      ],
      "type": "VEC3",
      "bufferView": 1,
      "byteOffset": 0
    },
    {
      "name": "core1:core1:shader_ballstandard_shader_b_1_0_texcoords",
      "componentType": 5126,
      "count": 14626,
      "min": [
        0,
        0
      ],
      "max": [
        1.6250230073928833,
        1
      ],
      "type": "VEC2",
      "bufferView": 2,
      "byteOffset": 0
    },
    {
      "name": "core1:core1:shader_ballstandard_shader_b_1_0_indices",
      "componentType": 5123,
      "count": 63528,
      "min": [
        0
      ],
      "max": [
        14625
      ],
      "type": "SCALAR",
      "bufferView": 3,
      "byteOffset": 0
    }
  ],
  "asset": {
    "generator": "obj2gltf",
    "version": "2.0"
  },
  "buffers": [
    {
      "name": "core_base_floor",
      "byteLength": 595088,
      "uri": "data:application/octet-stream;base64,"
    }
  ],
  "bufferViews": [
    {
      "name": "bufferView_0",
      "buffer": 0,
      "byteLength": 175512,
      "byteOffset": 0,
      "byteStride": 12,
      "target": 34962
    },
    {
      "name": "bufferView_1",
      "buffer": 0,
      "byteLength": 175512,
      "byteOffset": 175512,
      "byteStride": 12,
      "target": 34962
    },
    {
      "name": "bufferView_2",
      "buffer": 0,
      "byteLength": 117008,
      "byteOffset": 351024,
      "byteStride": 8,
      "target": 34962
    },
    {
      "name": "bufferView_3",
      "buffer": 0,
      "byteLength": 127056,
      "byteOffset": 468032,
      "target": 34963
    }
  ],
  "materials": [
    {
      "name": "initialShadingGroup",
      "pbrMetallicRoughness": {
        "baseColorFactor": [
          0,
          0,
          0,
          1
        ],
        "metallicFactor": 0,
        "roughnessFactor": 1
      },
      "emissiveFactor": [
        0,
        0,
        0
      ],
      "alphaMode": "OPAQUE",
      "doubleSided": false
    }
  ],
  "meshes": [
    {
      "name": "core1:core1:shader_ballstandard_shader_b_1",
      "primitives": [
        {
          "attributes": {
            "POSITION": 0,
            "NORMAL": 1,
            "TEXCOORD_0": 2
          },
          "indices": 3,
          "material": 0,
          "mode": 4
        }
      ]
    }
  ],
  "nodes": [
    {
      "name": "core1:core1:shader_ballstandard_shader_b",
      "mesh": 0
    }
  ],
  "scene": 0,
  "scenes": [
    {
      "nodes": [
        0
      ]
    }
  ]
}
